<?xml version="1.0" encoding="utf-8"?>
<!-- Generator: Adobe Illustrator 24.0.1, SVG Export Plug-In . SVG Version: 6.00 Build 0)  -->
<svg version="1.1" id="Layer_1" xmlns="http://www.w3.org/2000/svg" xmlns:xlink="http://www.w3.org/1999/xlink" x="0px" y="0px"
	 viewBox="0 0 1080 384.8" style="enable-background:new 0 0 1080 384.8;" xml:space="preserve">
<style type="text/css">
	.st0{display:none;fill:#378983;}
	.st1{display:none;opacity:0.1;}
	.st2{display:inline;}
	.st3{clip-path:url(#SVGID_2_);}
	.st4{display:none;fill:#4DA098;}
	.st5{enable-background:new    ;}
	.st6{fill:#378983;}
	.st7{opacity:0.1;}
	.st8{clip-path:url(#SVGID_4_);}
	.st9{fill:#72B7AE;}
	.st10{fill:#4DA098;}
</style>
<g>
	<path class="st0" d="M-1663.5,504.4l-5.2,5.2c-1.4,1.5-1.4,3.8,0,5.2c1.4,1.5,3.8,1.5,5.2,0l10.5-10.5c1.4-1.5,1.4-3.8,0-5.2
		l-10.5-10.5c-1.4-1.5-3.8-1.5-5.2,0c-1.4,1.5-1.4,3.8,0,5.2l5.2,5.2C-1662.1,500.6-1662.1,503-1663.5,504.4"/>
	<path class="st0" d="M-1649.3,508.7l-13.8,13.8c-3.8,3.8-3.8,10,0,13.8s10,3.8,13.8,0l27.6-27.6c3.8-3.8,3.8-10,0-13.8l-27.6-27.6
		c-3.8-3.8-10-3.8-13.8,0s-3.8,10,0,13.8l13.8,13.8C-1645.5,498.7-1645.5,504.9-1649.3,508.7"/>
	<g class="st1">
		<g class="st2">
			<g>
				<defs>
					<rect id="SVGID_1_" x="-1643.1" y="481.2" width="24.2" height="32.3"/>
				</defs>
				<clipPath id="SVGID_2_">
					<use xlink:href="#SVGID_1_"  style="overflow:visible;"/>
				</clipPath>
				<path class="st3" d="M-1640.2,499.7l13.7,13.7l4.7-4.7c3.8-3.8,3.8-10,0-13.8l-13.7-13.7l-4.7,4.7
					C-1644,489.7-1644,495.9-1640.2,499.7"/>
			</g>
		</g>
	</g>
	<path class="st4" d="M-1592.6,487.2l5.2-5.2c1.4-1.5,1.4-3.8,0-5.2c-1.4-1.5-3.8-1.5-5.2,0l-10.5,10.5c-1.4,1.5-1.4,3.8,0,5.2
		l10.5,10.5c1.4,1.5,3.8,1.5,5.2,0c1.4-1.5,1.4-3.8,0-5.2l-5.2-5.2C-1594.1,491-1594.1,488.6-1592.6,487.2"/>
	<path class="st4" d="M-1609.6,482.9l13.8-13.8c3.8-3.8,3.8-10,0-13.8s-10-3.8-13.8,0l-27.6,27.6c-3.8,3.8-3.8,10,0,13.8l27.6,27.6
		c3.8,3.8,10,3.8,13.8,0s3.8-10,0-13.8l-13.8-13.8C-1613.4,492.9-1613.4,486.7-1609.6,482.9"/>
</g>
<g>
	<g class="st5">
		<path class="st6" d="M428.8,226.3c-9.5,9.3-21.7,13.7-35,13.7c-34.2,0-48.7-23.6-48.9-47.5c-0.1-24.1,15.5-48.6,48.9-48.6
			c12.5,0,24.4,4.7,33.8,14.1L416,169.2c-6.1-5.9-14.2-8.7-22.3-8.7c-22.3,0-31.9,16.6-31.7,32c0.1,15.3,9,31.2,31.7,31.2
			c8,0,17.1-3.3,23.2-9.3L428.8,226.3z"/>
		<path class="st6" d="M508.9,220.5h-48.2l-7.9,17.4h-18.8l41.3-92.2h19l41.3,92.2h-19L508.9,220.5z M484.8,165.1l-17.1,39.2h34.2
			L484.8,165.1z"/>
		<path class="st6" d="M594.4,210.8h-26.1v27.1H551v-92.2c14.5,0,29-0.1,43.5-0.1C639.5,145.6,639.6,210.8,594.4,210.8z
			 M568.4,194.8h26.1c22.3,0,22.1-32.7,0-32.7h-26.1V194.8z"/>
		<path class="st6" d="M672.8,161.5h-29.2v-15.8c26.6,0,49.1,0,75.8,0v15.8h-29.2v76.4h-17.4V161.5z"/>
		<path class="st6" d="M822.5,145.9v52.8c0,27.3-16.7,41.2-39.9,41.2c-22.1,0-41-13.4-41-41.2v-52.8h17.3v52.8
			c0,16.6,9.5,25.4,23.8,25.4s22.5-9.6,22.5-25.4v-52.8H822.5z"/>
		<path class="st6" d="M930.2,237.9h-20.7l-26.9-30.8H866v30.8h-17.4v-92.3c14.6,0,29.2,0.1,43.9,0.1c21.7,0.1,33.2,14.6,33.2,30.6
			c0,12.6-5.8,25.4-23.3,29l27.9,31.5V237.9z M866,161.9v29.5h26.5c11.1,0,15.8-7.4,15.8-14.7c0-7.4-4.9-14.7-15.8-14.7H866z"/>
		<path class="st6" d="M1015,237.9h-69c0-30.7,0-61.5,0-92.2h69v16.9h-51.8v21.2h49.9V200h-49.9v20.8h51.8V237.9z"/>
	</g>
	<g>
		<polygon class="st6" points="110.6,108.5 215.7,213.6 105.3,324.4 79.6,277.3 141.1,213.9 81.1,153.1 		"/>
		<g class="st7">
			<g>
				<defs>
					<polygon id="SVGID_3_" points="110.6,108.5 215.7,213.6 105.3,324.4 79.6,277.3 141.1,213.9 81.1,153.1 					"/>
				</defs>
				<clipPath id="SVGID_4_">
					<use xlink:href="#SVGID_3_"  style="overflow:visible;"/>
				</clipPath>
				<polygon class="st8" points="189.2,244.1 134.2,186.9 162.6,158.2 185.7,160 197.8,227.8 				"/>
			</g>
		</g>
		<polygon class="st9" points="247.2,80.1 142.1,185.2 252.5,296 278.2,248.8 216.6,185.5 276.6,124.7 		"/>
		<polygon class="st9" points="282.4,145.7 242.5,185.5 284.4,227.5 294.1,209.6 270.8,185.6 293.6,162.6 		"/>
		<polygon class="st10" points="77.6,254 117.5,214.1 75.6,172.1 65.9,190 89.2,214 66.4,237.1 		"/>
	</g>
</g>
</svg>
